<svg xmlns="http://www.w3.org/2000/svg" xmlns:xlink="http://www.w3.org/1999/xlink" id="Layer_1" x="0px" y="0px" width="215px" height="114px" viewBox="0 0 215 114" xml:space="preserve"><g>	<path fill-rule="evenodd" clip-rule="evenodd" fill="#D0D2D3" d="M121.358,33.47c2.611,0,4.724,2.114,4.724,4.722  c0,2.608-2.112,4.722-4.724,4.722c-2.607,0-4.72-2.114-4.72-4.722C116.639,35.584,118.751,33.47,121.358,33.47 M108.882,2.78  c21.233,0,38.446,17.213,38.446,38.447c0,21.234-17.213,38.448-38.446,38.448c-0.744,0-1.481-0.023-2.216-0.065  c3.96-2.259,7.497-4.748,10.623-7.46c13.616-3.692,23.632-16.137,23.632-30.922c0-17.695-14.344-32.04-32.039-32.04  s-32.039,14.344-32.039,32.04c0,10.943,5.488,20.603,13.859,26.383c31.67,10.367,24.245-44.932-11.162-35.152  c15.513-7.757,32.714,0.337,40.809,16.526c7.082-3.827,11.736-10.075,14.839-17.875c-2.358,18.421-11.198,32.949-27.448,42.256  c-0.97,0.55-9.428,4.845-9.843,4.713c-15.881-4.727-27.461-19.436-27.461-36.852C70.436,19.994,87.649,2.78,108.882,2.78z"></path>	<g>		<defs>			<path id="SVGID_3_" d="M119.977,32.088c2.607,0,4.724,2.113,4.724,4.721c0,2.608-2.116,4.722-4.724,4.722    s-4.721-2.113-4.721-4.722C115.256,34.202,117.369,32.088,119.977,32.088 M107.5,1.397c21.232,0,38.446,17.213,38.446,38.447    c0,21.233-17.214,38.447-38.446,38.447c-0.744,0-1.481-0.023-2.216-0.065c3.96-2.257,7.494-4.747,10.623-7.459    c13.616-3.694,23.632-16.137,23.632-30.923c0-17.694-14.344-32.04-32.039-32.04S75.458,22.15,75.458,39.845    c0,10.943,5.487,20.604,13.862,26.382c31.666,10.369,24.245-44.931-11.162-35.151c15.514-7.756,32.713,0.337,40.809,16.526    c7.079-3.827,11.736-10.074,14.839-17.875c-2.358,18.421-11.198,32.949-27.452,42.257c-0.966,0.55-9.424,4.843-9.839,4.712    c-15.881-4.727-27.464-19.434-27.464-36.851C69.051,18.611,86.264,1.397,107.5,1.397z"></path>		</defs>		<clipPath id="SVGID_2_">			<use xlink:href="#SVGID_3_"></use>		</clipPath>		<linearGradient id="SVGID_4_" gradientUnits="userSpaceOnUse" x1="69.0508" y1="39.8447" x2="145.9463" y2="39.8447">			<stop offset="0" style="stop-color:#1F407D"></stop>			<stop offset="1" style="stop-color:#00ADEE"></stop>		</linearGradient>		<rect x="69.051" y="1.397" clip-path="url(#SVGID_2_)" fill="url(#SVGID_4_)" width="76.896" height="76.895"></rect>	</g>	<path fill-rule="evenodd" clip-rule="evenodd" fill="#1F407D" d="M40.898,102.7l-3.867-8.509l-3.939,8.509H40.898z M42.403,105.989  H31.541l-1.638,3.403c-0.223,0.475-0.339,0.844-0.339,1.114c0,0.523,0.398,0.885,1.186,1.083v0.578h-7.966v-0.578  c0.469-0.096,0.831-0.257,1.076-0.493c0.246-0.234,0.532-0.692,0.844-1.374l8.859-18.501c0.282-0.589,0.422-1.06,0.422-1.415  c0-0.541-0.339-0.927-1.023-1.161v-0.58h8.537v0.58c-0.697,0.198-1.039,0.546-1.039,1.041c0,0.337,0.106,0.729,0.328,1.163  l9.169,18.554c0.392,0.789,0.727,1.325,1.022,1.614s0.688,0.475,1.18,0.571v0.578h-8.89v-0.578  c0.777-0.131,1.163-0.493,1.163-1.094c0-0.254-0.12-0.622-0.355-1.103L42.403,105.989z M76.647,90.091l-2.874,5.667l-0.491-0.284  c0.01-0.114,0.017-0.211,0.017-0.282c0-0.397-0.342-0.831-1.023-1.289c-2.096-1.458-4.554-2.186-7.377-2.186  c-1.246,0-2.349,0.149-3.309,0.457c-0.691,0.241-1.253,0.591-1.685,1.066c-0.429,0.47-0.645,0.982-0.645,1.537  c0,0.908,0.548,1.529,1.638,1.854c0.564,0.169,1.777,0.344,3.638,0.536l2.771,0.284c1.644,0.174,2.979,0.416,3.999,0.723  c1.017,0.307,1.913,0.734,2.704,1.289c0.801,0.578,1.432,1.337,1.896,2.275c0.462,0.947,0.697,1.952,0.697,3.023  c0,1.692-0.548,3.206-1.637,4.524c-0.987,1.197-2.521,2.089-4.607,2.661c-1.555,0.44-3.216,0.658-4.993,0.658  c-3.186,0-6.328-0.766-9.437-2.289c-0.655-0.307-1.047-0.458-1.18-0.458c-0.149,0-0.392,0.133-0.725,0.385l-0.511-0.259  l2.614-5.908l0.511,0.248c0,0.103,0,0.181,0,0.229c0,0.53,0.253,1.016,0.755,1.463c0.764,0.681,1.949,1.271,3.547,1.764  c1.602,0.495,3.119,0.741,4.551,0.741c1.568,0,2.903-0.264,4.007-0.794c0.614-0.296,1.103-0.688,1.465-1.174  c0.365-0.488,0.548-1,0.548-1.531c0-0.801-0.429-1.372-1.292-1.716c-0.602-0.234-1.811-0.452-3.634-0.649l-2.725-0.284  c-1.82-0.192-3.112-0.374-3.866-0.541c-0.754-0.169-1.505-0.447-2.259-0.826c-1.073-0.53-1.913-1.325-2.521-2.385  c-0.555-0.957-0.834-2.053-0.834-3.289c0-2.041,0.701-3.727,2.104-5.057c1.837-1.759,4.594-2.639,8.274-2.639  c1.534,0,2.976,0.158,4.302,0.47c1.328,0.314,2.986,0.885,4.979,1.723c0.681,0.271,1.096,0.403,1.252,0.403  c0.246,0,0.531-0.133,0.86-0.403L76.647,90.091z M100.531,101.654H86.656v8.665c0,0.355,0.083,0.626,0.252,0.819  c0.17,0.199,0.458,0.344,0.867,0.452v0.578h-7.514v-0.578c0.422-0.12,0.711-0.271,0.873-0.457c0.163-0.188,0.246-0.458,0.246-0.814  V89.917c0-0.355-0.083-0.626-0.246-0.814c-0.162-0.186-0.451-0.344-0.873-0.457v-0.58h7.514v0.58  c-0.422,0.108-0.711,0.252-0.874,0.452c-0.162,0.193-0.245,0.463-0.245,0.819v7.761h13.875v-7.761c0-0.355-0.083-0.626-0.246-0.819  c-0.163-0.199-0.452-0.344-0.874-0.452v-0.58h7.518v0.58c-0.422,0.113-0.711,0.271-0.874,0.457  c-0.162,0.188-0.249,0.458-0.249,0.814v20.402c0,0.355,0.087,0.626,0.249,0.814c0.163,0.186,0.452,0.337,0.874,0.457v0.578h-7.518  v-0.578c0.409-0.108,0.698-0.252,0.867-0.452c0.17-0.193,0.253-0.463,0.253-0.819V101.654z M127.314,102.7l-3.866-8.509  l-3.94,8.509H127.314z M128.819,105.989h-10.865l-1.638,3.403c-0.223,0.475-0.339,0.844-0.339,1.114  c0,0.523,0.398,0.885,1.188,1.083v0.578h-7.969v-0.578c0.472-0.096,0.831-0.257,1.08-0.493c0.245-0.234,0.527-0.692,0.84-1.374  l8.859-18.501c0.282-0.589,0.422-1.06,0.422-1.415c0-0.541-0.336-0.927-1.023-1.161v-0.58h8.541v0.58  c-0.698,0.198-1.043,0.546-1.043,1.041c0,0.337,0.109,0.729,0.332,1.163l9.165,18.554c0.392,0.789,0.73,1.325,1.022,1.614  c0.296,0.289,0.688,0.475,1.183,0.571v0.578h-8.889v-0.578c0.777-0.131,1.162-0.493,1.162-1.094c0-0.254-0.119-0.622-0.355-1.103  L128.819,105.989z M163.061,90.091l-2.87,5.667l-0.495-0.284c0.014-0.114,0.017-0.211,0.017-0.282c0-0.397-0.342-0.831-1.023-1.289  c-2.096-1.458-4.551-2.186-7.377-2.186c-1.246,0-2.349,0.149-3.306,0.457c-0.694,0.241-1.252,0.591-1.688,1.066  c-0.425,0.47-0.645,0.982-0.645,1.537c0,0.908,0.548,1.529,1.638,1.854c0.568,0.169,1.777,0.344,3.638,0.536l2.771,0.284  c1.644,0.174,2.982,0.416,3.999,0.723c1.02,0.307,1.917,0.734,2.704,1.289c0.801,0.578,1.435,1.337,1.896,2.275  c0.465,0.947,0.701,1.952,0.701,3.023c0,1.692-0.548,3.206-1.638,4.524c-0.99,1.197-2.524,2.089-4.607,2.661  c-1.555,0.44-3.216,0.658-4.992,0.658c-3.186,0-6.332-0.766-9.438-2.289c-0.658-0.307-1.05-0.458-1.183-0.458  c-0.149,0-0.389,0.133-0.721,0.385l-0.512-0.259l2.614-5.908l0.512,0.248c0,0.103,0,0.181,0,0.229c0,0.53,0.252,1.016,0.751,1.463  c0.767,0.681,1.953,1.271,3.547,1.764c1.602,0.495,3.119,0.741,4.555,0.741c1.564,0,2.903-0.264,4.003-0.794  c0.614-0.296,1.103-0.688,1.465-1.174c0.368-0.488,0.548-1,0.548-1.531c0-0.801-0.429-1.372-1.289-1.716  c-0.601-0.234-1.813-0.452-3.638-0.649l-2.724-0.284c-1.816-0.192-3.112-0.374-3.863-0.541c-0.754-0.169-1.508-0.447-2.259-0.826  c-1.072-0.53-1.916-1.325-2.524-2.385c-0.555-0.957-0.83-2.053-0.83-3.289c0-2.041,0.697-3.727,2.099-5.057  c1.838-1.759,4.598-2.639,8.278-2.639c1.535,0,2.973,0.158,4.299,0.47c1.332,0.314,2.986,0.885,4.979,1.723  c0.681,0.271,1.096,0.403,1.252,0.403c0.249,0,0.531-0.133,0.863-0.403L163.061,90.091z M185.452,95.21l-5.521,13.893  c-0.322,0.704-0.479,1.149-0.479,1.342c0,0.536,0.436,0.921,1.309,1.144v0.578h-7.739v-0.578c0.79-0.149,1.186-0.553,1.186-1.197  c0-0.174-0.169-0.699-0.491-1.573l-6.903-17.758c-0.342-0.88-0.65-1.477-0.927-1.789c-0.278-0.314-0.681-0.518-1.212-0.626v-0.58  h8.348v0.58c-0.741,0.161-1.109,0.511-1.109,1.041c0,0.271,0.093,0.656,0.285,1.163l4.78,12.719l5.155-12.792  c0.223-0.548,0.339-0.915,0.339-1.09c0-0.543-0.398-0.892-1.189-1.041v-0.58h8.76v0.58c-0.797,0.209-1.199,0.596-1.199,1.144  c0,0.193,0.104,0.542,0.299,1.06l4.894,12.719l4.75-12.508c0.246-0.622,0.372-1.085,0.372-1.392c0-0.518-0.425-0.862-1.269-1.023  v-0.58h8.268v0.58c-0.591,0.161-0.993,0.372-1.216,0.631c-0.223,0.259-0.519,0.855-0.887,1.784l-6.896,17.758  c-0.328,0.85-0.491,1.417-0.491,1.692c0,0.578,0.415,0.94,1.252,1.078v0.578h-7.846v-0.578c0.817-0.131,1.232-0.523,1.232-1.179  c0-0.223-0.187-0.754-0.548-1.591L185.452,95.21z M209.104,110.301V89.917c0-0.355-0.086-0.626-0.249-0.814  c-0.163-0.186-0.452-0.344-0.874-0.457v-0.58h7.518v0.58c-0.422,0.108-0.711,0.252-0.874,0.452  c-0.162,0.193-0.245,0.463-0.245,0.819v20.384c0,0.369,0.083,0.644,0.252,0.837c0.17,0.199,0.459,0.344,0.867,0.452v0.578h-7.518  v-0.578c0.422-0.12,0.711-0.271,0.874-0.457C209.018,110.945,209.104,110.669,209.104,110.301z M15.51,102.069v8.231  c0,0.362,0.083,0.639,0.246,0.832c0.169,0.186,0.458,0.337,0.873,0.457v0.578H9.112v-0.578c0.408-0.12,0.7-0.271,0.866-0.457  c0.17-0.193,0.253-0.47,0.253-0.832v-8.231L2.445,91.125c-0.668-0.938-1.192-1.564-1.578-1.89  c-0.379-0.325-0.837-0.518-1.365-0.589v-0.58h9.527v0.58c-0.791,0.126-1.187,0.493-1.187,1.089c0,0.211,0.239,0.674,0.728,1.39  l4.335,6.474l4.488-6.474c0.481-0.692,0.724-1.163,0.724-1.408c0-0.266-0.103-0.5-0.315-0.693  c-0.216-0.192-0.498-0.319-0.867-0.378v-0.58h9.305v0.58c-0.528,0.071-0.987,0.264-1.365,0.589c-0.386,0.326-0.91,0.952-1.578,1.89  L15.51,102.069z"></path></g></svg>