<svg xmlns="http://www.w3.org/2000/svg" xmlns:xlink="http://www.w3.org/1999/xlink" id="Layer_1" x="0px" y="0px" width="184px" height="48px" viewBox="0 0 184 48" xml:space="preserve"><g>	<path fill-rule="evenodd" clip-rule="evenodd" fill="#D0D2D3" d="M32.118,19.709c1.586,0,2.869,1.283,2.869,2.867  s-1.283,2.868-2.869,2.868c-1.582,0-2.865-1.284-2.865-2.868S30.536,19.709,32.118,19.709 M24.542,1.069  c12.895,0,23.35,10.454,23.35,23.351s-10.455,23.351-23.35,23.351c-0.453,0-0.9-0.014-1.346-0.039  c2.402-1.372,4.553-2.884,6.451-4.531c8.27-2.243,14.352-9.801,14.352-18.78c0-10.747-8.711-19.459-19.457-19.459  c-10.748,0-19.461,8.712-19.461,19.459c0,6.646,3.336,12.513,8.42,16.023c19.232,6.296,14.725-27.288-6.781-21.35  c9.422-4.711,19.869,0.205,24.785,10.037c4.301-2.324,7.129-6.119,9.014-10.856c-1.434,11.188-6.803,20.012-16.67,25.664  c-0.59,0.334-5.729,2.942-5.98,2.863C8.224,43.931,1.19,34.997,1.19,24.42C1.19,11.523,11.646,1.069,24.542,1.069z"></path>	<g>		<defs>			<path id="SVGID_4_" d="M31.278,18.869c1.586,0,2.871,1.283,2.871,2.867c0,1.585-1.285,2.868-2.871,2.868    c-1.584,0-2.867-1.283-2.867-2.868C28.411,20.152,29.694,18.869,31.278,18.869 M23.702,0.229c12.896,0,23.35,10.454,23.35,23.351    c0,12.896-10.453,23.351-23.35,23.351c-0.453,0-0.898-0.015-1.346-0.04c2.404-1.37,4.551-2.882,6.449-4.53    c8.271-2.243,14.354-9.8,14.354-18.78c0-10.746-8.709-19.459-19.457-19.459c-10.746,0-19.463,8.713-19.463,19.459    c0,6.646,3.334,12.514,8.42,16.022c19.232,6.299,14.727-27.287-6.777-21.349c9.422-4.711,19.867,0.205,24.783,10.037    c4.301-2.324,7.129-6.118,9.014-10.856C38.247,28.623,32.878,37.446,23.005,43.1c-0.586,0.334-5.723,2.941-5.975,2.862    C7.384,43.09,0.349,34.158,0.349,23.58C0.349,10.684,10.804,0.229,23.702,0.229z"></path>		</defs>		<clipPath id="SVGID_2_">			<use xlink:href="#SVGID_4_"></use>		</clipPath>		<linearGradient id="SVGID_3_" gradientUnits="userSpaceOnUse" x1="0.3486" y1="23.5801" x2="47.0518" y2="23.5801">			<stop offset="0" style="stop-color:#1F407D"></stop>			<stop offset="1" style="stop-color:#00ADEE"></stop>		</linearGradient>		<rect x="0.349" y="0.229" clip-path="url(#SVGID_2_)" fill="url(#SVGID_3_)" width="46.703" height="46.701"></rect>	</g>	<path fill-rule="evenodd" clip-rule="evenodd" fill="#1F407D" d="M77.608,25.988l-2.35-5.167l-2.393,5.167H77.608z M78.522,27.985  h-6.598l-0.994,2.067c-0.135,0.288-0.205,0.513-0.205,0.677c0,0.318,0.242,0.538,0.719,0.658v0.351h-4.838v-0.351  c0.285-0.059,0.506-0.157,0.654-0.3s0.324-0.421,0.512-0.834l5.381-11.236c0.174-0.358,0.256-0.644,0.256-0.859  c0-0.329-0.203-0.563-0.621-0.705v-0.353h5.186v0.353c-0.424,0.12-0.631,0.332-0.631,0.632c0,0.205,0.064,0.443,0.199,0.706  L83.11,30.06c0.238,0.479,0.439,0.806,0.621,0.98c0.18,0.176,0.418,0.289,0.717,0.348v0.351H79.05v-0.351  c0.471-0.08,0.707-0.3,0.707-0.665c0-0.154-0.074-0.378-0.219-0.67L78.522,27.985z M99.321,18.33l-1.746,3.442L97.276,21.6  c0.006-0.069,0.012-0.128,0.012-0.172c0-0.24-0.209-0.504-0.623-0.782c-1.273-0.886-2.766-1.328-4.48-1.328  c-0.758,0-1.426,0.091-2.01,0.278c-0.418,0.146-0.76,0.358-1.021,0.647c-0.26,0.285-0.393,0.597-0.393,0.933  c0,0.552,0.334,0.929,0.996,1.126c0.342,0.104,1.078,0.209,2.209,0.325l1.682,0.173c0.998,0.106,1.811,0.253,2.428,0.439  c0.617,0.186,1.162,0.445,1.643,0.782c0.486,0.352,0.871,0.813,1.152,1.382c0.281,0.575,0.424,1.186,0.424,1.836  c0,1.028-0.334,1.947-0.992,2.748c-0.602,0.728-1.533,1.269-2.799,1.616c-0.945,0.268-1.955,0.399-3.033,0.399  c-1.936,0-3.844-0.465-5.732-1.391c-0.396-0.186-0.635-0.278-0.715-0.278c-0.092,0-0.238,0.081-0.441,0.234l-0.311-0.157  l1.588-3.588l0.311,0.15c0,0.063,0,0.109,0,0.139c0,0.321,0.154,0.617,0.459,0.889c0.465,0.414,1.184,0.771,2.152,1.071  c0.975,0.301,1.896,0.45,2.766,0.45c0.951,0,1.764-0.161,2.434-0.482c0.373-0.18,0.668-0.417,0.889-0.714  c0.221-0.296,0.334-0.606,0.334-0.929c0-0.487-0.26-0.834-0.785-1.043c-0.365-0.143-1.1-0.273-2.207-0.394l-1.654-0.173  c-1.107-0.117-1.891-0.228-2.35-0.329c-0.457-0.103-0.912-0.271-1.371-0.501c-0.65-0.322-1.162-0.805-1.533-1.448  c-0.336-0.582-0.504-1.247-0.504-1.998c0-1.239,0.426-2.264,1.275-3.071c1.117-1.068,2.791-1.604,5.027-1.604  c0.932,0,1.807,0.097,2.611,0.286c0.809,0.19,1.814,0.537,3.025,1.046c0.414,0.164,0.664,0.245,0.762,0.245  c0.146,0,0.32-0.081,0.521-0.245L99.321,18.33z M113.827,25.353h-8.428v5.264c0,0.216,0.051,0.38,0.152,0.497  c0.104,0.121,0.277,0.208,0.527,0.274v0.351h-4.564v-0.351c0.258-0.073,0.434-0.165,0.531-0.278c0.1-0.113,0.15-0.277,0.15-0.493  V18.225c0-0.216-0.051-0.38-0.15-0.495c-0.098-0.112-0.273-0.208-0.531-0.276v-0.353h4.564v0.353  c-0.256,0.065-0.432,0.153-0.529,0.274c-0.1,0.117-0.15,0.281-0.15,0.497v4.714h8.428v-4.714c0-0.216-0.051-0.38-0.15-0.497  c-0.1-0.121-0.273-0.209-0.531-0.274v-0.353h4.566v0.353c-0.256,0.068-0.432,0.164-0.531,0.276c-0.098,0.115-0.15,0.279-0.15,0.495  v12.392c0,0.216,0.053,0.38,0.15,0.493c0.1,0.113,0.275,0.205,0.531,0.278v0.351h-4.566v-0.351  c0.248-0.066,0.424-0.153,0.527-0.274c0.104-0.117,0.154-0.281,0.154-0.497V25.353z M130.093,25.988l-2.348-5.167l-2.393,5.167  H130.093z M131.007,27.985h-6.6l-0.994,2.067c-0.135,0.288-0.205,0.513-0.205,0.677c0,0.318,0.242,0.538,0.721,0.658v0.351h-4.84  v-0.351c0.287-0.059,0.506-0.157,0.656-0.3c0.148-0.143,0.32-0.421,0.51-0.834l5.383-11.236c0.17-0.358,0.256-0.644,0.256-0.859  c0-0.329-0.205-0.563-0.623-0.705v-0.353h5.188v0.353c-0.424,0.12-0.635,0.332-0.635,0.632c0,0.205,0.068,0.443,0.203,0.706  l5.566,11.269c0.236,0.479,0.443,0.806,0.621,0.98c0.18,0.176,0.416,0.289,0.717,0.348v0.351h-5.398v-0.351  c0.475-0.08,0.707-0.3,0.707-0.665c0-0.154-0.072-0.378-0.215-0.67L131.007,27.985z M151.802,18.33l-1.742,3.442l-0.301-0.173  c0.01-0.069,0.01-0.128,0.01-0.172c0-0.24-0.207-0.504-0.621-0.782c-1.271-0.886-2.764-1.328-4.48-1.328  c-0.756,0-1.428,0.091-2.008,0.278c-0.422,0.146-0.76,0.358-1.025,0.647c-0.258,0.285-0.391,0.597-0.391,0.933  c0,0.552,0.332,0.929,0.994,1.126c0.346,0.104,1.082,0.209,2.209,0.325l1.684,0.173c0.998,0.106,1.811,0.253,2.43,0.439  c0.619,0.186,1.164,0.445,1.643,0.782c0.486,0.352,0.869,0.813,1.15,1.382c0.281,0.575,0.426,1.186,0.426,1.836  c0,1.028-0.332,1.947-0.994,2.748c-0.602,0.728-1.533,1.269-2.799,1.616c-0.943,0.268-1.953,0.399-3.031,0.399  c-1.936,0-3.848-0.465-5.732-1.391c-0.4-0.186-0.637-0.278-0.719-0.278c-0.09,0-0.234,0.081-0.438,0.234l-0.311-0.157l1.588-3.588  l0.311,0.15c0,0.063,0,0.109,0,0.139c0,0.321,0.152,0.617,0.455,0.889c0.467,0.414,1.188,0.771,2.156,1.071  c0.973,0.301,1.895,0.45,2.766,0.45c0.949,0,1.764-0.161,2.43-0.482c0.375-0.18,0.672-0.417,0.891-0.714  c0.225-0.296,0.332-0.606,0.332-0.929c0-0.487-0.26-0.834-0.783-1.043c-0.363-0.143-1.1-0.273-2.209-0.394l-1.652-0.173  c-1.104-0.117-1.891-0.228-2.348-0.329c-0.457-0.103-0.916-0.271-1.371-0.501c-0.652-0.322-1.164-0.805-1.533-1.448  c-0.336-0.582-0.504-1.247-0.504-1.998c0-1.239,0.424-2.264,1.275-3.071c1.115-1.068,2.791-1.604,5.025-1.604  c0.934,0,1.805,0.097,2.613,0.286c0.807,0.19,1.813,0.537,3.023,1.046c0.412,0.164,0.666,0.245,0.76,0.245  c0.152,0,0.322-0.081,0.525-0.245L151.802,18.33z M165.401,21.439l-3.352,8.438c-0.195,0.427-0.293,0.697-0.293,0.814  c0,0.325,0.266,0.56,0.797,0.695v0.351h-4.701v-0.351c0.48-0.091,0.721-0.336,0.721-0.728c0-0.106-0.104-0.425-0.299-0.955  l-4.191-10.785c-0.209-0.535-0.396-0.897-0.563-1.087c-0.17-0.19-0.416-0.314-0.738-0.38v-0.353h5.07v0.353  c-0.449,0.098-0.672,0.311-0.672,0.632c0,0.165,0.057,0.398,0.172,0.706l2.902,7.726l3.131-7.77  c0.137-0.333,0.207-0.556,0.207-0.662c0-0.33-0.242-0.541-0.723-0.632v-0.353h5.32v0.353c-0.484,0.127-0.727,0.362-0.727,0.694  c0,0.117,0.063,0.329,0.18,0.644l2.973,7.726l2.885-7.597c0.15-0.378,0.227-0.659,0.227-0.846c0-0.314-0.258-0.523-0.771-0.621  v-0.353h5.021v0.353c-0.359,0.098-0.604,0.226-0.738,0.383s-0.314,0.52-0.539,1.084l-4.189,10.785  c-0.199,0.516-0.297,0.86-0.297,1.028c0,0.35,0.252,0.57,0.76,0.654v0.351h-4.766v-0.351c0.498-0.08,0.748-0.317,0.748-0.717  c0-0.135-0.111-0.458-0.332-0.966L165.401,21.439z M179.767,30.604v-12.38c0-0.216-0.051-0.38-0.15-0.495  c-0.102-0.112-0.275-0.208-0.531-0.276v-0.353h4.566v0.353c-0.256,0.065-0.434,0.153-0.531,0.274  c-0.1,0.117-0.148,0.281-0.148,0.497v12.38c0,0.224,0.049,0.392,0.152,0.509c0.104,0.121,0.277,0.208,0.527,0.274v0.351h-4.566  v-0.351c0.256-0.073,0.43-0.165,0.531-0.278C179.716,30.996,179.767,30.828,179.767,30.604z M62.188,25.605v4.999  c0,0.22,0.051,0.388,0.15,0.505c0.102,0.113,0.279,0.205,0.529,0.278v0.351h-4.566v-0.351c0.25-0.073,0.428-0.165,0.527-0.278  c0.104-0.117,0.154-0.285,0.154-0.505v-4.999l-4.729-6.646c-0.406-0.57-0.725-0.95-0.959-1.148  c-0.23-0.197-0.508-0.314-0.828-0.357v-0.353h5.785v0.353c-0.48,0.076-0.719,0.299-0.719,0.661c0,0.128,0.143,0.409,0.441,0.845  l2.633,3.932l2.725-3.932c0.291-0.421,0.439-0.706,0.439-0.855c0-0.162-0.063-0.304-0.191-0.421  c-0.131-0.117-0.303-0.193-0.525-0.229v-0.353h5.65v0.353c-0.32,0.043-0.602,0.16-0.83,0.357c-0.234,0.198-0.553,0.578-0.957,1.148  L62.188,25.605z"></path></g></svg>