<?xml version="1.0" encoding="utf-8"?>
<!-- Generator: Adobe Illustrator 16.0.0, SVG Export Plug-In . SVG Version: 6.00 Build 0)  -->
<!DOCTYPE svg PUBLIC "-//W3C//DTD SVG 1.0//EN" "http://www.w3.org/TR/2001/REC-SVG-20010904/DTD/svg10.dtd">
<svg version="1.0" id="Layer_1" xmlns="http://www.w3.org/2000/svg" xmlns:xlink="http://www.w3.org/1999/xlink" x="0px" y="0px"
	 width="261px" height="101.137px" viewBox="0 0 261 101.137" enable-background="new 0 0 261 101.137" xml:space="preserve">
<g>
	<rect x="94.569" y="35.593" fill="#404041" width="99.435" height="0.835"/>
	<path fill-rule="evenodd" clip-rule="evenodd" fill="#DC4132" d="M69.192,20.146C58.326,32.86,48.146,41.603,38.668,46.381
		l7.064,12.554c9.492-4.886,22.582-8.376,39.258-10.47c-0.329-1.502-1.021-2.771-2.078-3.803C74.077,46.802,64,47.947,52.68,48.101
		c-1.405-0.121-1.666-0.801-0.737-2.031c3.515-6.199,9.948-13.72,19.317-22.54C70.87,21.776,70.176,20.654,69.192,20.146"/>
	<path fill-rule="evenodd" clip-rule="evenodd" fill="#DC4132" d="M72.859,35.597c1.651,2.817,0.643,6.405-2.244,8.016
		c-2.886,1.612-6.562,0.632-8.222-2.185c-1.637-2.817-0.636-6.407,2.245-8.021C67.526,31.8,71.203,32.779,72.859,35.597"/>
	<path fill-rule="evenodd" clip-rule="evenodd" fill="#A5CD39" d="M17.693,19.029c10.813,12.758,20.954,21.547,30.396,26.367
		l-7.112,12.521c-9.469-4.93-22.545-8.475-39.222-10.649c0.343-1.493,1.04-2.751,2.097-3.783c8.831,2.173,18.91,3.365,30.218,3.567
		c1.417-0.12,1.666-0.798,0.754-2.028c-3.485-6.216-9.892-13.764-19.217-22.625C16.014,20.648,16.71,19.523,17.693,19.029"/>
	<path fill-rule="evenodd" clip-rule="evenodd" fill="#A5CD39" d="M16.06,36.198c1.713-2.792,5.403-3.708,8.263-2.044
		c2.856,1.66,3.793,5.268,2.093,8.058c-1.702,2.782-5.4,3.707-8.259,2.042C15.305,42.598,14.365,38.987,16.06,36.198"/>
	<path fill-rule="evenodd" clip-rule="evenodd" fill="#0094D9" d="M60.047,14.436c-7.875,19.494-10.583,34.986-8.103,46.474
		c5.655,18.385,9.051,27.863,10.18,28.442c-1.74,0.857-3.536,0.729-5.361-0.416c-3.795-13.614-8.023-23.116-12.674-28.497
		c-1.06-0.161-2.037,0.727-2.928,2.648c-3.845,5.808-7.657,14.746-11.414,26.81c-2.6,0.626-4.176,0.354-4.731-0.823
		c5.834-12.879,9.621-23.988,11.36-33.345c0.384-10.908-2.738-24.669-9.364-41.271c1.506-0.429,2.975-0.438,4.414-0.033
		c2.314,8.594,6.104,17.778,11.383,27.554c0.793,1.141,1.525,1.034,2.187-0.344c3.9-5.981,7.572-15.102,11.02-27.358
		C57.775,13.78,59.121,13.838,60.047,14.436"/>
	<path fill-rule="evenodd" clip-rule="evenodd" fill="#0094D9" d="M43.653,19.879c3.329,0.01,6.022,2.645,6.013,5.884
		c-0.005,3.246-2.721,5.879-6.037,5.871c-3.323-0.014-6.012-2.643-6.011-5.896C37.629,22.494,40.334,19.867,43.653,19.879"/>
	<path fill-rule="evenodd" clip-rule="evenodd" fill="#404041" d="M163.027,55.344l0.032-14.601l2.494,0.009l-0.04,14.594
		L163.027,55.344z M157.446,52.773l0.002-2.059l-0.589-0.011c-0.807-0.005-1.407,0.153-1.821,0.473
		c-0.397,0.32-0.589,0.716-0.589,1.188c0,0.388,0.122,0.699,0.361,0.95c0.244,0.244,0.525,0.382,0.843,0.382
		c0.293,0,0.586-0.081,0.899-0.244C156.841,53.305,157.147,53.072,157.446,52.773z M157.446,54.228
		c-0.365,0.38-0.676,0.663-0.933,0.834c-0.27,0.162-0.53,0.284-0.831,0.382c-0.29,0.07-0.59,0.106-0.909,0.106
		c-0.83,0-1.483-0.287-1.972-0.855c-0.505-0.553-0.743-1.257-0.743-2.069c0-0.999,0.382-1.833,1.125-2.487
		c0.738-0.682,1.952-1.007,3.612-1.003h0.653l0.004-0.924c0-0.62-0.151-1.036-0.458-1.251c-0.313-0.23-0.725-0.342-1.207-0.343
		c-0.947,0-1.915,0.304-2.901,0.904l0.005-1.874c1.112-0.474,2.232-0.697,3.348-0.697c0.679,0,1.289,0.103,1.835,0.31
		c0.536,0.185,0.96,0.516,1.293,0.949c0.303,0.41,0.474,1.061,0.474,1.917l-0.01,4.479c-0.006,0.558,0.066,0.894,0.222,1.011
		c0.16,0.129,0.314,0.187,0.461,0.187c0.089,0,0.186,0,0.335-0.037l0.057,1.535c-0.533,0.188-0.994,0.265-1.413,0.262
		c-0.441,0-0.853-0.08-1.187-0.251c-0.318-0.169-0.582-0.531-0.765-1.083H157.446z M141.616,55.3l0.03-10.148l2.49,0.003
		l-0.002,1.908c0.441-0.774,0.947-1.336,1.476-1.66c0.556-0.319,1.101-0.463,1.671-0.463c0.722,0,1.34,0.248,1.87,0.754
		c0.517,0.533,0.77,1.322,0.77,2.453l-0.014,7.166l-2.478-0.007l0.017-6.493c0-0.566-0.05-0.926-0.141-1.138
		c-0.095-0.181-0.218-0.338-0.376-0.454c-0.151-0.094-0.345-0.151-0.528-0.151c-0.353,0-0.708,0.134-1.067,0.378
		c-0.377,0.244-0.776,0.73-1.207,1.472l-0.011,6.382L141.616,55.3z M134.567,53.805c0.705,0,1.237-0.338,1.604-1.027
		c0.361-0.678,0.535-1.527,0.535-2.564c0.007-1.042-0.159-1.894-0.525-2.571c-0.359-0.682-0.888-1.033-1.602-1.033
		c-0.697-0.007-1.219,0.34-1.581,1.026c-0.358,0.672-0.533,1.522-0.533,2.565c-0.002,1.04,0.166,1.896,0.526,2.573
		C133.347,53.46,133.865,53.802,134.567,53.805z M134.562,55.507c-1.002-0.003-1.855-0.207-2.557-0.651
		c-0.719-0.418-1.255-1.056-1.628-1.897c-0.374-0.829-0.571-1.738-0.566-2.758c0.005-1.029,0.197-1.936,0.557-2.766
		c0.382-0.833,0.925-1.455,1.639-1.895c0.729-0.431,1.582-0.634,2.583-0.634c1.016,0,1.876,0.215,2.582,0.649
		c0.72,0.434,1.26,1.062,1.626,1.895c0.37,0.828,0.565,1.742,0.558,2.763c-0.007,1.025-0.196,1.935-0.573,2.764
		c-0.38,0.83-0.934,1.478-1.632,1.893C136.426,55.306,135.558,55.507,134.562,55.507z M125.07,43.395v-2.273l2.501,0.013
		l-0.012,2.261H125.07z M125.038,55.263l0.029-10.153l2.488,0.012l-0.025,10.146L125.038,55.263z M122.835,55.194
		c-0.602,0.198-1.063,0.287-1.411,0.287c-0.808,0-1.447-0.12-1.888-0.387c-0.451-0.25-0.768-0.588-0.991-1.022
		c-0.223-0.441-0.345-1.088-0.338-1.934l0.01-5.337h-1.031l0.005-1.707h1.028l0.002-1.726l2.497-0.292l-0.005,2.023l1.957,0.009
		l-0.008,1.703l-1.957-0.005l-0.015,4.976c0,0.739,0.121,1.23,0.346,1.495c0.242,0.244,0.589,0.376,1.032,0.382
		c0.218,0,0.462-0.038,0.771-0.134L122.835,55.194z M112.498,52.673l0.001-2.069h-0.586c-0.807,0-1.414,0.149-1.827,0.472
		c-0.393,0.324-0.58,0.717-0.58,1.192c-0.008,0.379,0.115,0.701,0.349,0.947c0.247,0.245,0.526,0.387,0.848,0.387
		c0.292,0,0.591-0.079,0.896-0.249C111.892,53.199,112.204,52.969,112.498,52.673z M112.494,54.129
		c-0.36,0.383-0.675,0.661-0.932,0.833c-0.264,0.166-0.533,0.283-0.828,0.382c-0.291,0.07-0.589,0.11-0.917,0.11
		c-0.825-0.004-1.474-0.286-1.972-0.857c-0.5-0.559-0.744-1.257-0.744-2.069c0.012-0.996,0.397-1.839,1.13-2.494
		c0.745-0.679,1.954-1.002,3.614-0.993h0.652l0.008-0.93c0-0.623-0.157-1.041-0.462-1.251c-0.313-0.221-0.725-0.341-1.206-0.341
		c-0.94-0.008-1.907,0.294-2.91,0.899l0.009-1.868c1.112-0.471,2.233-0.702,3.354-0.692c0.683,0,1.283,0.093,1.836,0.303
		c0.53,0.191,0.966,0.514,1.286,0.95c0.309,0.416,0.481,1.064,0.481,1.911l-0.015,4.485c0,0.556,0.068,0.896,0.225,1.002
		c0.152,0.135,0.309,0.188,0.463,0.195c0.084-0.007,0.188,0,0.321-0.036l0.07,1.526c-0.54,0.198-0.998,0.267-1.41,0.267
		c-0.451-0.001-0.862-0.079-1.187-0.252c-0.327-0.171-0.582-0.53-0.768-1.08H112.494z M94.737,55.194l0.026-13.692l2.295,0.008
		l5.719,9.357l0.027-9.341h2.08l-0.033,13.683h-2.322l-5.689-9.365l-0.023,9.351H94.737z"/>
	<path fill-rule="evenodd" clip-rule="evenodd" fill="#0094D9" d="M259.234,72.961c-0.619,0.192-1.104,0.298-1.463,0.298
		c-0.844,0-1.509-0.118-1.98-0.396c-0.455-0.261-0.791-0.619-1.029-1.072c-0.234-0.456-0.353-1.134-0.353-2.015l0.009-5.565
		l-1.076-0.004l0.004-1.776h1.08v-1.787l2.601-0.314v2.105l2.041,0.005l-0.004,1.782l-2.039-0.002l-0.014,5.19
		c-0.008,0.763,0.117,1.28,0.353,1.562c0.242,0.251,0.605,0.39,1.066,0.39c0.241,0,0.484-0.036,0.815-0.137L259.234,72.961z
		 M242.494,72.98l0.026-10.574l2.603,0.008l-0.008,1.994c0.462-0.808,0.981-1.397,1.542-1.734c0.581-0.335,1.152-0.489,1.745-0.489
		c0.758,0,1.393,0.25,1.954,0.799c0.539,0.551,0.801,1.384,0.801,2.544l-0.025,7.483l-2.575-0.016l0.013-6.762
		c0.006-0.593-0.055-0.971-0.142-1.187c-0.104-0.198-0.228-0.355-0.395-0.474c-0.157-0.102-0.358-0.163-0.553-0.163
		c-0.359,0-0.735,0.145-1.114,0.393c-0.393,0.261-0.811,0.778-1.25,1.541l-0.018,6.648L242.494,72.98z M233.828,66.632l3.405,0.007
		c0.003-0.964-0.137-1.663-0.419-2.067c-0.286-0.434-0.666-0.639-1.128-0.639c-0.502,0-0.914,0.229-1.243,0.687
		C234.117,65.078,233.918,65.743,233.828,66.632z M239.783,72.624c-1.238,0.392-2.402,0.593-3.495,0.588
		c-1.037-0.006-1.951-0.231-2.725-0.637c-0.786-0.439-1.379-1.105-1.801-2.025c-0.414-0.904-0.628-1.896-0.628-2.96
		c0.002-0.986,0.19-1.888,0.544-2.735c0.367-0.834,0.884-1.498,1.569-1.998c0.681-0.467,1.536-0.696,2.532-0.696
		c1.222,0,2.194,0.414,2.911,1.286c0.736,0.87,1.112,2.474,1.108,4.818l-5.926-0.013c0.062,0.708,0.205,1.258,0.431,1.674
		c0.238,0.419,0.558,0.731,0.948,0.987c0.397,0.244,0.94,0.359,1.619,0.366c0.863,0,1.82-0.212,2.921-0.673L239.783,72.624z
		 M214.591,72.925l0.029-10.582l2.488,0.006v1.992c0.319-0.646,0.752-1.173,1.295-1.589c0.537-0.433,1.182-0.632,1.954-0.626
		c0.458,0,0.857,0.072,1.212,0.233c0.351,0.159,0.653,0.399,0.918,0.733c0.248,0.337,0.433,0.772,0.501,1.264
		c0.488-0.788,0.967-1.356,1.471-1.708c0.486-0.357,1.097-0.512,1.796-0.512c0.792,0.005,1.424,0.24,1.903,0.752
		c0.476,0.497,0.725,1.322,0.725,2.444l-0.017,7.617h-2.491l0.013-6.687c0-0.786-0.104-1.307-0.335-1.552
		c-0.229-0.209-0.482-0.333-0.774-0.329c-0.389-0.004-0.783,0.153-1.163,0.445c-0.384,0.325-0.756,0.771-1.133,1.405l-0.013,6.711
		l-2.481-0.005l0.02-6.687c0-0.793-0.119-1.285-0.337-1.552c-0.229-0.229-0.5-0.345-0.802-0.36c-0.403,0-0.779,0.162-1.152,0.477
		c-0.377,0.299-0.742,0.774-1.117,1.408l-0.017,6.699H214.591z M205.311,70.138c0.354,0.434,0.7,0.753,1.002,0.91
		c0.321,0.162,0.626,0.238,0.95,0.238c0.702,0.006,1.204-0.373,1.552-1.119c0.338-0.751,0.502-1.615,0.502-2.601
		c0.007-1.006-0.16-1.795-0.478-2.373c-0.321-0.563-0.77-0.871-1.361-0.877c-0.378,0-0.735,0.146-1.111,0.441
		c-0.384,0.289-0.721,0.684-1.05,1.18L205.311,70.138z M202.698,76.707l0.036-14.384h2.585v1.993
		c0.332-0.748,0.76-1.297,1.281-1.674c0.52-0.37,1.119-0.545,1.836-0.545c1.163,0,2.057,0.477,2.701,1.442
		c0.629,0.972,0.953,2.231,0.946,3.793c-0.005,1.659-0.367,3.036-1.082,4.16c-0.712,1.108-1.714,1.66-3.004,1.651
		c-0.32-0.004-0.648-0.044-0.933-0.117c-0.286-0.083-0.575-0.2-0.843-0.379c-0.25-0.154-0.57-0.442-0.915-0.814l-0.015,4.873
		H202.698z M195.351,71.34c0.74,0,1.302-0.353,1.677-1.063c0.381-0.708,0.555-1.599,0.565-2.68c0-1.09-0.174-1.984-0.548-2.688
		c-0.379-0.707-0.935-1.065-1.671-1.065c-0.729-0.009-1.269,0.348-1.651,1.061c-0.373,0.708-0.56,1.598-0.567,2.677
		c0.008,1.093,0.18,1.981,0.554,2.692C194.088,70.982,194.623,71.335,195.351,71.34z M195.35,73.125
		c-1.036-0.01-1.932-0.233-2.665-0.68c-0.749-0.44-1.307-1.11-1.701-1.984c-0.396-0.866-0.592-1.816-0.581-2.879
		c0-1.065,0.196-2.011,0.576-2.881c0.4-0.867,0.958-1.519,1.707-1.97c0.756-0.45,1.652-0.663,2.689-0.66
		c1.066,0,1.954,0.22,2.693,0.677c0.745,0.445,1.323,1.102,1.699,1.976c0.394,0.868,0.587,1.813,0.581,2.88
		c0,1.065-0.196,2.011-0.596,2.883c-0.407,0.863-0.965,1.535-1.706,1.964C197.289,72.902,196.391,73.125,195.35,73.125z
		 M185.42,72.863l0.037-15.213h2.596l-0.034,15.22L185.42,72.863z M176.755,66.506l3.405,0.01c0-0.971-0.133-1.656-0.422-2.076
		c-0.284-0.434-0.663-0.633-1.128-0.633c-0.505,0-0.913,0.235-1.23,0.688C177.048,64.947,176.853,65.613,176.755,66.506z
		 M182.713,72.501c-1.235,0.391-2.403,0.584-3.493,0.584c-1.047-0.006-1.962-0.222-2.729-0.64c-0.787-0.44-1.377-1.11-1.808-2.019
		c-0.412-0.903-0.618-1.898-0.615-2.964c0-0.98,0.183-1.892,0.542-2.739c0.357-0.824,0.881-1.499,1.566-1.992
		c0.688-0.468,1.52-0.701,2.527-0.695c1.217,0,2.204,0.403,2.914,1.287c0.74,0.861,1.12,2.465,1.109,4.814l-5.939-0.013
		c0.077,0.704,0.213,1.262,0.451,1.677c0.225,0.411,0.549,0.731,0.943,0.987c0.394,0.24,0.936,0.368,1.61,0.368
		c0.868,0,1.825-0.223,2.933-0.671L182.713,72.501z M166.667,72.823l-3.643-10.594l2.714,0.009l2.675,7.638l2.684-7.625h1.885
		l-3.736,10.576L166.667,72.823z M155.62,66.457l3.4,0.006c0.004-0.966-0.134-1.66-0.416-2.07c-0.296-0.44-0.669-0.632-1.129-0.632
		c-0.505-0.001-0.921,0.235-1.247,0.689C155.907,64.901,155.707,65.571,155.62,66.457z M161.571,72.45
		c-1.234,0.392-2.402,0.591-3.496,0.588c-1.036-0.008-1.954-0.222-2.721-0.642c-0.793-0.434-1.38-1.104-1.804-2.012
		c-0.414-0.914-0.628-1.899-0.625-2.969c0.006-0.98,0.183-1.896,0.546-2.735c0.362-0.836,0.88-1.498,1.568-1.994
		c0.679-0.471,1.523-0.708,2.524-0.704c1.217,0,2.208,0.419,2.922,1.293c0.737,0.865,1.106,2.468,1.099,4.818l-5.931-0.019
		c0.065,0.708,0.202,1.264,0.44,1.682c0.233,0.41,0.56,0.733,0.948,0.986c0.392,0.239,0.93,0.36,1.608,0.366
		c0.87,0,1.835-0.219,2.929-0.672L161.571,72.45z M142.263,70.732h2.012c1.061,0,1.848-0.177,2.426-0.525
		c0.549-0.352,0.985-0.964,1.31-1.815c0.33-0.862,0.487-1.81,0.487-2.876c0.003-1.004-0.136-1.901-0.456-2.667
		c-0.316-0.791-0.752-1.379-1.304-1.778c-0.553-0.388-1.504-0.617-2.822-0.619l-1.619-0.006L142.263,70.732z M139.552,72.758
		l0.032-14.269l5.583,0.018c1.501,0.005,2.672,0.272,3.491,0.791c0.828,0.537,1.485,1.314,1.987,2.341
		c0.487,1.017,0.725,2.263,0.724,3.709c0,1.408-0.236,2.697-0.7,3.803c-0.484,1.124-1.179,2.008-2.079,2.662
		c-0.892,0.633-2.127,0.967-3.691,0.958L139.552,72.758z M128.006,72.733l0.041-15.217l2.6,0.007l-0.044,15.215L128.006,72.733z
		 M122.184,72.719l0.032-15.215l2.601,0.007l-0.033,15.212L122.184,72.719z M116.379,60.335l0.005-2.37l2.599,0.012v2.363
		L116.379,60.335z M116.347,72.708l0.024-10.577l2.608,0.006l-0.031,10.571H116.347z M105.007,72.687l0.033-15.22l2.598,0.005
		l-0.02,9.571h0.167l3.432-4.93l2.151,0.007l-3.167,4.512l4.124,6.075l-3.132-0.012l-3.414-5.299h-0.16l-0.012,5.296L105.007,72.687
		z M94.051,72.524l0.008-2.456c1,0.477,1.748,0.757,2.253,0.835c0.5,0.103,0.97,0.144,1.38,0.144c0.754,0,1.331-0.168,1.708-0.55
		c0.351-0.374,0.555-0.827,0.555-1.342c0-0.389-0.101-0.748-0.322-1.084c-0.193-0.318-0.709-0.709-1.509-1.224l-0.89-0.523
		c-1.232-0.768-2.094-1.481-2.524-2.135c-0.443-0.649-0.675-1.398-0.675-2.252c0.002-1.063,0.384-1.985,1.135-2.758
		c0.743-0.748,1.822-1.142,3.219-1.136c1.035,0,2.219,0.18,3.527,0.503l-0.008,2.29c-1.34-0.561-2.399-0.835-3.187-0.835
		c-0.646-0.007-1.148,0.152-1.487,0.468c-0.345,0.31-0.521,0.686-0.527,1.122c0,0.338,0.105,0.649,0.322,0.931
		c0.199,0.294,0.704,0.688,1.528,1.185l0.921,0.575c1.436,0.887,2.334,1.645,2.721,2.3c0.399,0.659,0.592,1.401,0.592,2.201
		c-0.003,1.171-0.417,2.175-1.225,3.008c-0.81,0.82-2.106,1.236-3.856,1.225C96.653,73.016,95.427,72.85,94.051,72.524z"/>
	<path fill-rule="evenodd" clip-rule="evenodd" fill="#404041" d="M189.578,89.404l0.031-10.146l2.485,0.006v1.913
		c0.446-0.781,0.951-1.345,1.484-1.665c0.552-0.326,1.1-0.472,1.665-0.465c0.727,0,1.345,0.249,1.875,0.754
		c0.514,0.53,0.769,1.33,0.769,2.444l-0.016,7.174h-2.478l0.018-6.494c0-0.568-0.054-0.936-0.13-1.144
		c-0.109-0.189-0.235-0.335-0.388-0.451c-0.148-0.099-0.342-0.152-0.527-0.152c-0.348,0-0.703,0.128-1.069,0.374
		c-0.378,0.249-0.779,0.735-1.208,1.47l-0.016,6.383H189.578z M182.537,87.908c0.699,0,1.233-0.337,1.597-1.019
		c0.362-0.682,0.537-1.532,0.537-2.575c0.003-1.037-0.163-1.896-0.525-2.575c-0.36-0.685-0.886-1.021-1.591-1.023
		c-0.708,0-1.225,0.339-1.586,1.021c-0.365,0.681-0.541,1.525-0.541,2.564c-0.004,1.044,0.168,1.9,0.533,2.582
		C181.308,87.565,181.829,87.908,182.537,87.908z M182.532,89.612c-0.998-0.004-1.86-0.208-2.565-0.649
		c-0.715-0.425-1.252-1.063-1.625-1.898c-0.376-0.834-0.563-1.742-0.563-2.763c0-1.024,0.192-1.924,0.563-2.773
		c0.373-0.821,0.905-1.445,1.632-1.879c0.729-0.431,1.583-0.637,2.58-0.63c1.016,0,1.875,0.208,2.573,0.639
		c0.724,0.44,1.276,1.068,1.641,1.894c0.371,0.842,0.556,1.749,0.556,2.763c-0.003,1.031-0.196,1.936-0.571,2.767
		c-0.384,0.833-0.935,1.473-1.648,1.89C184.39,89.407,183.525,89.612,182.532,89.612z M173.039,77.499v-2.271l2.495,0.006
		l-0.008,2.266H173.039z M173.005,89.365l0.02-10.147l2.493,0.001l-0.027,10.148L173.005,89.365z M170.803,89.296
		c-0.605,0.19-1.065,0.296-1.405,0.284c-0.815-0.001-1.451-0.114-1.899-0.376c-0.442-0.255-0.771-0.596-0.997-1.034
		c-0.224-0.432-0.334-1.077-0.334-1.925l0.008-5.336l-1.025-0.011l0.004-1.699h1.03v-1.722l2.497-0.288l-0.001,2.016l1.957,0.013
		l-0.003,1.702l-1.957-0.009l-0.015,4.978c0,0.741,0.118,1.23,0.343,1.497c0.242,0.241,0.582,0.378,1.026,0.378
		c0.224-0.005,0.472-0.034,0.779-0.127L170.803,89.296z M160.46,86.783l0.003-2.067h-0.582c-0.815,0-1.412,0.146-1.827,0.475
		c-0.401,0.313-0.59,0.712-0.59,1.185c0,0.376,0.123,0.704,0.367,0.943c0.238,0.247,0.516,0.381,0.835,0.381
		c0.294,0,0.592-0.075,0.894-0.241C159.856,87.306,160.16,87.081,160.46,86.783z M160.452,88.235
		c-0.361,0.373-0.667,0.66-0.928,0.835c-0.252,0.155-0.531,0.281-0.834,0.375c-0.288,0.078-0.58,0.119-0.896,0.119
		c-0.833-0.009-1.487-0.294-1.984-0.864c-0.496-0.553-0.735-1.253-0.73-2.063c0-1.01,0.374-1.839,1.123-2.49
		c0.74-0.689,1.942-1.01,3.612-1.01l0.65,0.012l0.002-0.927c0.008-0.63-0.143-1.044-0.457-1.257
		c-0.308-0.228-0.722-0.337-1.205-0.337c-0.946-0.006-1.912,0.296-2.905,0.9l0.002-1.87c1.123-0.476,2.237-0.702,3.348-0.691
		c0.697,0,1.294,0.09,1.844,0.299c0.533,0.195,0.966,0.514,1.288,0.941c0.314,0.43,0.478,1.065,0.478,1.921l-0.014,4.493
		c0,0.541,0.069,0.884,0.229,0.997c0.151,0.128,0.301,0.19,0.456,0.19c0.086,0,0.195,0,0.327-0.034l0.066,1.529
		c-0.536,0.183-1.001,0.262-1.402,0.262c-0.451-0.001-0.866-0.079-1.196-0.248c-0.318-0.172-0.584-0.534-0.768-1.078L160.452,88.235
		z M148.105,89.304l0.024-10.139h2.485v1.921c0.291-0.666,0.716-1.181,1.222-1.572c0.516-0.38,1.088-0.561,1.728-0.561
		c0.155,0,0.308,0.014,0.471,0.051l-0.015,2.42c-0.343-0.131-0.671-0.208-0.981-0.208c-0.5,0-0.941,0.132-1.368,0.413
		c-0.386,0.263-0.746,0.685-1.066,1.242l-0.015,6.446L148.105,89.304z M141.06,87.809c0.697,0,1.237-0.33,1.602-1.01
		c0.361-0.686,0.532-1.54,0.532-2.577c0-1.036-0.164-1.896-0.521-2.572c-0.353-0.685-0.896-1.027-1.593-1.032
		c-0.709,0-1.228,0.348-1.59,1.027c-0.361,0.677-0.534,1.526-0.534,2.573c-0.005,1.032,0.162,1.896,0.525,2.577
		C139.835,87.474,140.35,87.809,141.06,87.809z M141.055,89.523c-0.997-0.007-1.857-0.22-2.56-0.653
		c-0.722-0.424-1.25-1.065-1.633-1.899c-0.371-0.831-0.56-1.741-0.557-2.76c0.003-1.025,0.188-1.933,0.555-2.765
		c0.385-0.831,0.913-1.451,1.642-1.889c0.715-0.43,1.578-0.636,2.578-0.636c1.015,0.004,1.875,0.212,2.578,0.649
		c0.721,0.433,1.272,1.058,1.629,1.892c0.376,0.841,0.563,1.74,0.561,2.765c0,1.017-0.199,1.937-0.571,2.762
		c-0.382,0.836-0.936,1.476-1.643,1.89C142.913,89.317,142.043,89.523,141.055,89.523z M128.219,86.606
		c0.338,0.419,0.665,0.729,0.959,0.88c0.309,0.15,0.609,0.223,0.912,0.223c0.665,0.006,1.151-0.354,1.471-1.068
		c0.337-0.716,0.496-1.554,0.496-2.494c0.002-0.976-0.147-1.729-0.456-2.277c-0.306-0.548-0.739-0.831-1.307-0.831
		c-0.357,0-0.701,0.128-1.066,0.411c-0.362,0.281-0.694,0.663-1.002,1.129L128.219,86.606z M125.704,92.909l0.034-13.796
		l2.495,0.002v1.923c0.305-0.727,0.722-1.254,1.221-1.611c0.503-0.359,1.068-0.526,1.756-0.526c1.114,0.002,1.968,0.454,2.589,1.384
		c0.61,0.932,0.907,2.145,0.907,3.639c-0.002,1.588-0.349,2.911-1.048,3.985c-0.667,1.058-1.63,1.595-2.87,1.594
		c-0.311,0-0.618-0.042-0.895-0.12c-0.275-0.078-0.553-0.191-0.804-0.368c-0.245-0.15-0.552-0.413-0.875-0.771l-0.016,4.673
		L125.704,92.909z M117.892,89.241l0.024-10.146l2.489,0.008v1.913c0.286-0.66,0.704-1.178,1.221-1.571
		c0.519-0.377,1.088-0.562,1.724-0.562c0.153,0,0.313,0.018,0.463,0.055l-0.008,2.424c-0.337-0.13-0.666-0.213-0.973-0.213
		c-0.499,0-0.948,0.135-1.366,0.418c-0.398,0.258-0.754,0.679-1.063,1.242l-0.017,6.442L117.892,89.241z M110.844,87.746
		c0.705,0,1.242-0.331,1.607-1.009c0.363-0.688,0.531-1.537,0.531-2.582c0.001-1.038-0.162-1.892-0.519-2.572
		c-0.36-0.685-0.896-1.027-1.601-1.031c-0.7,0-1.223,0.338-1.582,1.021c-0.366,0.681-0.536,1.535-0.539,2.574
		c0,1.044,0.169,1.893,0.526,2.578C109.626,87.408,110.146,87.746,110.844,87.746z M110.844,89.449c-1,0-1.862-0.208-2.56-0.648
		c-0.727-0.423-1.25-1.063-1.635-1.9c-0.371-0.834-0.556-1.736-0.554-2.764c0-1.02,0.19-1.923,0.554-2.757
		c0.375-0.836,0.916-1.458,1.635-1.888c0.718-0.436,1.587-0.637,2.584-0.637c1.013,0.008,1.877,0.217,2.576,0.643
		c0.719,0.439,1.271,1.064,1.628,1.898c0.381,0.838,0.565,1.74,0.557,2.767c0,1.019-0.191,1.929-0.567,2.766
		c-0.386,0.828-0.934,1.468-1.638,1.877C112.697,89.251,111.837,89.46,110.844,89.449z M104.668,88.659
		c-0.549,0.268-1.009,0.452-1.426,0.546c-0.397,0.099-0.863,0.19-1.359,0.255c-0.509,0.051-1.029,0.086-1.522,0.079
		c-2.178,0-3.794-0.69-4.859-2.034c-1.063-1.341-1.611-3.067-1.597-5.148c0-2.1,0.542-3.824,1.616-5.16
		c1.065-1.347,2.745-2.019,5.033-2.016c1.348,0,2.688,0.196,4.033,0.537l-0.008,2.23c-0.636-0.248-1.169-0.432-1.586-0.551
		c-0.395-0.115-0.794-0.192-1.152-0.249c-0.379-0.059-0.733-0.1-1.102-0.1c-1.421,0-2.453,0.51-3.111,1.503
		c-0.642,1.033-0.967,2.272-0.97,3.77c-0.005,1.56,0.348,2.813,1.086,3.792c0.723,0.966,1.821,1.452,3.261,1.458
		c1.205,0.003,2.421-0.334,3.668-1.009L104.668,88.659z"/>
	<polygon fill-rule="evenodd" clip-rule="evenodd" fill="#404041" points="104.552,32.152 96.997,22.237 96.975,32.132 
		94.618,32.132 94.654,17.37 96.099,17.375 103.664,27.292 103.692,17.375 105.997,17.375 105.958,32.158 	"/>
	<path fill-rule="evenodd" clip-rule="evenodd" fill="#404041" d="M131.49,27.727c0.003-1.391-0.861-2.104-2.571-2.104l-1.654-0.006
		c-3.099-0.008-4.636-1.431-4.626-4.252c0.003-2.625,1.546-3.926,4.626-3.917l5.293,0.012l-0.003,2.294l-5.593-0.009
		c-1.333-0.007-2.019,0.54-2.021,1.674c0,1.256,0.678,1.897,2.01,1.907h1.679c3.465,0.002,5.173,1.488,5.165,4.432
		c0,2.979-1.721,4.458-5.165,4.444l-5.876-0.011v-2.297l6.154,0.013C130.624,29.907,131.489,29.188,131.49,27.727"/>
	<path fill-rule="evenodd" clip-rule="evenodd" fill="#404041" d="M160.777,24.635c0.013-3.2-1.462-4.817-4.374-4.825l-3.734-0.014
		l-0.022,10.139l3.733,0.011C159.292,29.949,160.777,28.192,160.777,24.635 M150.318,17.492l5.433,0.014
		c4.95,0.016,7.44,2.381,7.425,7.136c-0.008,5.1-2.487,7.635-7.423,7.626l-5.47-0.021L150.318,17.492z"/>
	<path fill-rule="evenodd" clip-rule="evenodd" fill="#404041" d="M191.025,28.73c0.133-0.122,0.275-0.248,0.379-0.406
		c0.121-0.157,0.251-0.309,0.37-0.465l2.036,1.149c-0.319,0.469-0.683,0.91-1.117,1.347c-0.727,0.705-1.562,1.254-2.513,1.648
		c-0.951,0.401-1.951,0.599-2.99,0.599c-1.067-0.003-2.087-0.204-3.035-0.628c-0.951-0.404-1.782-0.95-2.484-1.647
		c-0.722-0.684-1.291-1.504-1.697-2.428c-0.423-0.927-0.62-1.923-0.62-2.959c0-1.039,0.208-2.015,0.634-2.938
		c0.412-0.929,0.98-1.739,1.71-2.446c0.697-0.678,1.537-1.231,2.49-1.654c0.953-0.396,1.972-0.591,3.035-0.591
		c1.037,0.003,2.036,0.211,3.006,0.633c0.139,0.062,0.273,0.108,0.407,0.172c0.113,0.072,0.249,0.131,0.36,0.199l-1.294,1.921
		c-0.063-0.024-0.128-0.066-0.198-0.115c-0.077-0.017-0.139-0.063-0.202-0.088c-0.32-0.153-0.658-0.267-1.003-0.331
		c-0.36-0.066-0.717-0.088-1.085-0.088c-0.743-0.002-1.467,0.127-2.13,0.414c-0.648,0.28-1.24,0.68-1.743,1.168
		c-0.493,0.484-0.881,1.054-1.172,1.696c-0.298,0.638-0.464,1.328-0.467,2.051c-0.003,0.729,0.16,1.435,0.451,2.082
		c0.295,0.638,0.676,1.215,1.17,1.693c0.502,0.493,1.087,0.87,1.745,1.167c0.655,0.28,1.372,0.42,2.127,0.423
		c0.746,0,1.451-0.138,2.103-0.421C189.961,29.599,190.524,29.226,191.025,28.73"/>
	<path fill-rule="evenodd" clip-rule="evenodd" fill="#A5CD39" d="M114.179,22.398c1.119,0.009,2.02,0.896,2.02,1.98
		c-0.005,1.101-0.914,1.985-2.032,1.985c-1.119,0-2.029-0.9-2.024-1.989C112.143,23.281,113.056,22.393,114.179,22.398"/>
	<path fill-rule="evenodd" clip-rule="evenodd" fill="#0094D9" d="M141.36,22.461c1.113,0.003,2.028,0.893,2.025,1.985
		c0,1.093-0.919,1.977-2.036,1.976c-1.125,0-2.03-0.893-2.028-1.984C139.322,23.349,140.234,22.458,141.36,22.461"/>
	<path fill-rule="evenodd" clip-rule="evenodd" fill="#DB252C" d="M171.063,22.527c1.125,0,2.03,0.889,2.028,1.985
		c0,1.094-0.912,1.978-2.033,1.978c-1.12-0.004-2.033-0.896-2.028-1.99C169.03,23.41,169.945,22.527,171.063,22.527"/>
</g>
</svg>
