<svg xmlns="http://www.w3.org/2000/svg" xmlns:xlink="http://www.w3.org/1999/xlink" version="1.0" id="Layer_1" x="0px" y="0px" viewBox="0 0 215 110" enable-background="new 0 0 215 110" xml:space="preserve"><g><path fill="#FFFFFF" d="M183.939,33.647l-0.383-0.076c-24.943-4.408-50.553-6.65-76.109-6.65c-25.504,0-51.061,2.217-75.953,6.625   l-0.357,0.051l-0.076,25.76h0.076l-0.076,16.994l0.383,0.078c24.943,4.406,50.553,6.65,76.107,6.65   c25.506,0,51.063-2.217,75.955-6.625l0.383-0.076l0.027-17.938h-0.027L183.939,33.647z"></path><path fill="#0047B9" d="M183.939,33.647l-0.383-0.076c-24.943-4.408-50.553-6.65-76.109-6.65c-25.504,0-51.061,2.217-75.953,6.625   l-0.383,0.076l-0.051,25.734h0.076l-0.076,16.994l0.383,0.078c24.943,4.406,50.553,6.65,76.107,6.65   c25.506,0,51.063-2.217,75.955-6.625l0.383-0.076l0.027-17.938h-0.027L183.939,33.647z M182.973,75.638   c-24.742,4.332-50.094,6.549-75.422,6.549c-25.377,0-50.781-2.217-75.572-6.572c0-0.713,0.076-15.416,0.076-16.258h150.967   C182.998,60.198,182.973,74.925,182.973,75.638"></path><path fill="#0047B9" d="M41.023,63.79h2.676c1.479-0.076,2.699,0.484,2.547,2.219c-0.154,1.656-1.555,2.189-3.006,2.215h-1.504   l-0.307,3.516h-1.096L41.023,63.79z M43.545,67.306c0.127,0,1.428,0.053,1.557-1.273c0.125-1.35-1.199-1.273-1.326-1.273h-1.732   l-0.23,2.547H43.545z"></path><path fill="#0047B9" d="M52.488,68.173l-0.305,3.594h-1.096l0.688-7.949h2.854c1.326,0,2.676,0.406,2.547,1.986   c-0.076,0.969-0.713,1.707-1.654,1.91v0.027c0.941,0.229,1.018,0.736,1.07,1.629c0.051,0.791,0.076,1.631,0.279,2.396h-1.172   c-0.051-0.484-0.152-0.996-0.152-1.453c-0.025-0.715,0.025-1.375-0.307-1.758c-0.279-0.357-0.738-0.332-1.17-0.357h-1.582V68.173z    M52.539,67.204h1.836c1.223-0.051,1.553-0.611,1.605-1.248c0.051-0.637-0.178-1.172-1.402-1.223H52.77L52.539,67.204z"></path><path fill="#0047B9" d="M66.477,63.638c2.473,0,3.467,1.809,3.287,4.152c-0.203,2.32-1.527,4.154-4,4.154   c-2.471,0-3.49-1.811-3.287-4.154S64.006,63.638,66.477,63.638 M65.84,70.976c2.014,0,2.625-1.555,2.752-3.186   c0.152-1.707-0.178-3.209-2.191-3.209c-2.012,0-2.625,1.502-2.752,3.209C63.496,69.421,63.828,70.976,65.84,70.976"></path><polygon fill="#0047B9" points="74.938,71.767 75.65,63.79 80.363,63.79 80.287,64.733 76.67,64.733 76.439,67.255 79.854,67.255    79.777,68.198 76.363,68.198 76.057,71.767  "></polygon><polygon fill="#0047B9" points="85.053,71.767 85.738,63.79 90.734,63.79 90.658,64.733 86.758,64.733 86.557,67.229    90.252,67.229 90.174,68.173 86.48,68.173 86.25,70.798 90.223,70.798 90.123,71.767  "></polygon><path fill="#0047B9" d="M96.951,69.421c-0.076,1.121,0.537,1.555,1.604,1.555c0.92,0,2.039-0.256,2.143-1.377   c0.076-0.764-0.535-1.094-1.199-1.221c-1.297-0.281-3.439-0.588-3.285-2.369c0.152-1.734,1.783-2.371,3.285-2.371   c1.352,0,2.625,0.611,2.498,2.141h-1.172c0.025-0.893-0.689-1.197-1.479-1.197c-0.791,0-1.887,0.279-1.963,1.223   c-0.074,0.893,0.563,0.969,1.225,1.172c1.426,0.484,3.414,0.484,3.26,2.471c-0.15,1.811-1.834,2.447-3.438,2.447   c-1.656,0-2.803-0.713-2.625-2.496h1.146V69.421z"></path><path fill="#0047B9" d="M108.314,69.421c-0.076,1.121,0.535,1.555,1.607,1.555c0.918,0,2.037-0.256,2.139-1.377   c0.076-0.764-0.535-1.094-1.197-1.221c-1.273-0.281-3.439-0.588-3.287-2.369c0.154-1.734,1.783-2.371,3.264-2.371   c1.35,0,2.648,0.611,2.494,2.141h-1.172c0.027-0.893-0.686-1.197-1.475-1.197c-0.791,0-1.889,0.279-1.965,1.223   c-0.076,0.893,0.563,0.969,1.223,1.172c1.428,0.484,3.416,0.484,3.264,2.471c-0.152,1.811-1.836,2.447-3.441,2.447   c-1.656,0-2.828-0.713-2.625-2.496h1.172V69.421z"></path><polygon fill="#0047B9" points="118.686,71.767 119.398,63.79 120.494,63.79 119.809,71.767  "></polygon><path fill="#0047B9" d="M129.797,63.638c2.471,0,3.49,1.809,3.285,4.152c-0.203,2.32-1.529,4.154-4.002,4.154   c-2.471,0-3.49-1.811-3.285-4.154C125.998,65.446,127.324,63.638,129.797,63.638 M129.156,70.976c2.016,0,2.627-1.555,2.752-3.186   c0.154-1.707-0.178-3.209-2.188-3.209c-2.016,0-2.627,1.502-2.752,3.209C126.814,69.421,127.146,70.976,129.156,70.976"></path><polygon fill="#0047B9" points="145.566,63.79 144.879,71.767 143.504,71.767 140.063,64.989 140.039,64.989 139.451,71.767    138.484,71.767 139.172,63.79 140.676,63.79 143.988,70.39 144.012,70.39 144.6,63.79  "></polygon><path fill="#0047B9" d="M150.076,71.767l4.053-7.949h1.172l2.523,7.949h-1.197l-0.689-2.064h-3.693l-1.045,2.064H150.076z    M152.703,68.733h2.98l-1.123-3.848L152.703,68.733z"></path><polygon fill="#0047B9" points="162.996,71.767 163.682,63.79 164.777,63.79 164.166,70.798 167.861,70.798 167.783,71.767  "></polygon><polygon fill="#0047B9" points="172.551,64.733 172.525,65.243 171.328,65.114 171.938,66.083 171.479,66.362 171.1,65.243    170.512,66.339 170.053,66.083 170.869,65.114 169.697,65.218 169.746,64.708 170.918,64.86 170.281,63.866 170.766,63.612    171.148,64.708 171.736,63.612 172.168,63.866 171.354,64.86  "></polygon><polygon fill="#FFFFFF" points="74.555,38.999 77.383,38.999 77.256,41.062 74.4,41.062  "></polygon><path fill="#FFFFFF" d="M153.162,49.444h-0.027c-0.637,0.613-1.25,1.047-2.422,1.047c-1.887,0-2.676-1.072-2.676-2.473   c0-1.58,1.631-2.6,4.512-2.6h0.943c0.049-0.686,0.307-1.834-0.895-1.834c-0.838,0-1.043,0.814-1.068,1.197h-2.752   c0.049-1.045,0.51-1.732,1.352-2.088c0.842-0.383,1.885-0.486,2.775-0.486c1.607,0,3.594,0.816,3.465,2.779l-0.229,3.82   c-0.025,0.332-0.025,0.688,0.027,1.631h-2.854L153.162,49.444 M151.836,48.911c1.402,0,1.504-1.301,1.58-2.369   c-0.637,0-1.225-0.027-1.656,0.178c-0.459,0.229-0.789,0.611-0.842,1.146C150.865,48.452,151.275,48.911,151.836,48.911"></path><path fill="#FFFFFF" d="M162.715,50.438l0.814-11.439h3.01l-0.791,11.439H162.715z M166.051,45.979l2.857-3.541h3.412l-3.059,3.361   l2.906,4.613h-3.695L166.051,45.979z"></path><path fill="#FFFFFF" d="M113.793,43.636h0.025c0.766-0.994,1.656-1.172,2.65-1.172l-0.178,2.547   c-0.205-0.023-0.406-0.023-0.611-0.023c-1.986,0-2.039,1.146-2.115,2.445l-0.178,2.955h-3.082l0.406-5.91   c0.053-0.715,0.076-1.199,0.053-2.064h2.953L113.793,43.636"></path><polygon fill="#FFFFFF" points="116.34,50.438 117.158,38.999 120.063,38.999 119.273,50.438  "></polygon><path fill="#FFFFFF" d="M92.773,38.999h2.98l-0.332,4.561h0.051c0.613-0.713,1.453-1.301,2.523-1.301   c2.445,0,3.389,2.141,3.234,4.078c-0.125,1.961-1.172,4.203-3.896,4.203c-0.918,0-1.809-0.51-2.217-1.096h-0.076l-0.18,0.969h-2.93   L92.773,38.999 M95.168,46.542c-0.051,0.967,0.205,2.342,1.301,2.342c1.373,0,1.732-1.375,1.781-2.471   c0.051-0.967-0.152-2.422-1.324-2.422C95.396,43.991,95.219,45.497,95.168,46.542"></path><path fill="#FFFFFF" d="M104.494,46.948c-0.076,1.096,0.152,1.986,1.297,1.986c0.842,0,1.379-0.559,1.379-1.068h2.775   c-0.049,0.969-0.736,1.732-1.527,2.164c-0.74,0.434-1.555,0.51-2.447,0.51c-3.262,0-4.51-1.352-4.305-4.357   c0.178-2.521,2.191-4,4.586-3.975c3.211,0.051,4.23,1.938,3.924,4.74H104.494 M107.398,45.446c0.025-0.436-0.076-0.842-0.281-1.199   c-0.203-0.332-0.535-0.533-0.992-0.51c-1.047,0.053-1.324,0.789-1.479,1.709H107.398z"></path><polygon fill="#FFFFFF" points="62.707,38.999 66.045,38.999 65.254,50.413 61.891,50.413  "></polygon><polygon fill="#FFFFFF" points="69.764,38.999 65.764,44.067 69.332,50.413 73.332,50.413 69.332,43.915 73.535,38.999  "></polygon><polygon fill="#FFFFFF" points="74.273,42.438 77.129,42.438 76.568,50.413 73.713,50.413  "></polygon><path fill="#FFFFFF" d="M80.721,42.438v1.07h0.025c0.891-1.174,2.115-1.273,2.854-1.273c1.096,0,2.191,0.611,2.422,1.4   c0.611-0.941,1.705-1.428,2.928-1.453c1.734,0,2.957,1.121,2.83,2.881l-0.383,5.324h-3.059L88.67,45.7   c0.051-0.766-0.025-1.633-1.018-1.633c-1.479,0-1.402,1.633-1.428,1.732l-0.307,4.563h-3.057l0.33-4.688   c0-0.791-0.076-1.631-1.07-1.631c-1.553,0-1.504,1.631-1.504,1.732l-0.305,4.561h-3.16l0.561-7.975h3.008"></path><polygon fill="#FFFFFF" points="123.959,54.261 121.184,54.261 122.967,50.567 120.063,42.464 123.451,42.464 124.748,47.407    126.863,42.464 129.643,42.464  "></polygon><polygon fill="#FFFFFF" points="129.539,44.067 133.387,44.067 132.166,46.542 128.318,46.542  "></polygon><path fill="#FFFFFF" d="M139.781,38.692c2.346,0,4.766,1.02,4.666,3.898h-3.236c0-0.738-0.434-1.605-1.529-1.605   c-1.098,0-2.395,0.816-2.625,3.186c-0.229,2.371,0.078,4.18,1.988,4.18c1.654,0,1.986-1.428,2.037-1.709h3.211   c0,1.273-1.043,3.898-5.402,3.898c-4.609,0-5.428-3.338-5.045-6.473C134.129,41.444,135.986,38.692,139.781,38.692"></path><polygon fill="#FFFFFF" points="144.496,50.438 145.313,38.999 148.219,38.999 147.428,50.438  "></polygon><path fill="#FFFFFF" d="M160.141,43.636h0.027c0.762-0.994,1.656-1.172,2.648-1.172l-0.178,2.547   c-0.23-0.023-0.432-0.023-0.637-0.023c-1.986,0-2.039,1.146-2.115,2.445l-0.178,2.955h-3.082l0.406-5.91   c0.049-0.715,0.076-1.199,0.049-2.064h2.957L160.141,43.636"></path><path fill="#FFFFFF" d="M39.111,44.681c0,4.586,4.281,8.307,9.531,8.307c5.273,0,9.529-3.721,9.529-8.307s-4.281-8.307-9.529-8.307   C43.369,36.374,39.111,40.095,39.111,44.681 M48.666,52.224c-4.865,0-8.791-3.365-8.791-7.543s3.926-7.543,8.791-7.543   c4.867,0,8.766,3.365,8.766,7.543S53.508,52.224,48.666,52.224"></path><path fill="#FFFFFF" d="M46.629,50.312v-2.318c-0.205,0.127-0.689,0.51-1.682,0.51h-3.924v-3.236h2.42   c0.611,0,0.639-0.357,0.639-0.457c0-0.943-1.607-2.219-3.365-3.57h4.766c0.305,0.23,0.738,0.537,1.146,0.996v-3.389h4.051v3.389   c0.408-0.459,0.867-0.791,1.146-0.996h4.766c-1.785,1.326-3.363,2.627-3.363,3.57c0,0.1,0.051,0.457,0.637,0.457h2.42v3.236h-3.924   c-0.994,0-1.479-0.383-1.682-0.51v2.318H46.629 M49.891,49.521v-3.668c0.686,1.527,1.91,1.887,2.879,1.887h2.727v-1.656h-1.912   c-0.992,0-1.299-0.74-1.299-1.148c0-1.02,0.814-1.783,2.063-2.877h-2.164c-0.943,0.609-1.861,1.578-2.268,2.699v-5.07h-2.473v5.07   c-0.432-1.096-1.324-2.063-2.293-2.699h-2.164c1.221,1.094,2.063,1.857,2.063,2.877c0,0.408-0.307,1.148-1.299,1.148h-1.912v1.656   h2.727c0.969,0,2.191-0.332,2.879-1.887v3.668H49.891z"></path></g></svg>